<svg width="244" height="23" viewBox="0 0 244 23" fill="none" xmlns="http://www.w3.org/2000/svg">
<g clip-path="url(#clip0_4_2)">
<path d="M66.6779 16.9979L61.0821 11.3479L66.2928 6.00208C66.3713 5.92205 66.3713 5.79401 66.2928 5.71398C66.2535 5.67396 66.2063 5.65796 66.1513 5.65796H60.6184L55.9107 10.6357V5.65796H50.8651V17.342H55.9107V12.2603L60.8149 17.35H66.5285C66.6386 17.35 66.725 17.262 66.7329 17.15C66.7329 17.0939 66.7093 17.0379 66.6779 16.9979Z" fill="white"/>
<path d="M43.5874 5.65796V11.6761L38.0466 5.65796H33.2446V17.342H38.0466V11.3319L43.5874 17.342H48.3973V5.65796H43.5874Z" fill="white"/>
<path d="M19.5931 5.65796L17.2589 12.7804L14.8068 5.65796H9.46254L7.01045 12.7804L4.67625 5.65796H0.196481C0.0864517 5.65796 0 5.74599 0 5.85803C0 5.88204 0 5.90605 0.00785925 5.92205L3.85103 17.342H9.72189L12.0875 10.4916L14.4532 17.342H20.3162L24.1515 5.92205C24.1908 5.81801 24.1358 5.70598 24.0257 5.66596C24.0021 5.65796 23.9864 5.65796 23.9628 5.65796H19.5931Z" fill="white"/>
<path d="M30.769 5.65796H25.7233V17.342H30.769V5.65796Z" fill="white"/>
<path d="M76.3212 0.168058L71.362 5.21781C71.1419 5.44189 71.1419 5.80202 71.362 6.0261L76.722 11.484L71.3384 16.9739C71.1183 17.198 71.1183 17.5581 71.3384 17.7822L76.2976 22.8319C76.5176 23.056 76.8713 23.056 77.0914 22.8319L87.835 11.8921C88.055 11.6681 88.055 11.3079 87.835 11.0839L77.1228 0.168058C76.9027 -0.0560195 76.5412 -0.0560195 76.3212 0.168058Z" fill="white"/>
</g>
<path d="M109.631 5.97517L120.5 16.7239M120.5 5.97517L109.631 16.7239" stroke="white"/>
<path fill-rule="evenodd" clip-rule="evenodd" d="M225.244 10.7872C225.251 10.9488 225.196 11.107 225.091 11.2331C225.036 11.2951 224.967 11.3445 224.89 11.3779C224.813 11.4113 224.729 11.4278 224.645 11.426C224.56 11.43 224.476 11.4168 224.398 11.3873C224.319 11.3579 224.248 11.3128 224.189 11.2551C224.07 11.1387 224.003 10.9821 224.003 10.819C223.999 10.7428 224.011 10.6665 224.04 10.5951C224.067 10.5236 224.111 10.4585 224.166 10.4037C224.222 10.3455 224.29 10.299 224.365 10.267C224.44 10.2351 224.522 10.2184 224.604 10.2181C224.687 10.2135 224.769 10.2257 224.846 10.2539C224.923 10.2821 224.993 10.3257 225.052 10.3818C225.112 10.4326 225.159 10.4949 225.193 10.5648C225.226 10.6346 225.243 10.7104 225.244 10.7872ZM227.079 6.61134L227.104 7.55423L228.054 7.52982L228.074 8.31274L227.125 8.33716L227.168 9.90296C227.163 10.0471 227.197 10.1899 227.266 10.3182C227.332 10.4184 227.475 10.466 227.696 10.4599C227.782 10.4577 227.866 10.4508 227.95 10.4391C228.046 10.4208 228.15 10.3952 228.265 10.3622L228.469 11.1781C228.3 11.2418 228.123 11.2829 227.943 11.3003C227.791 11.3221 227.638 11.336 227.484 11.3417C227.269 11.3534 227.053 11.3252 226.849 11.2587C226.696 11.2047 226.561 11.1138 226.455 10.9949C226.354 10.871 226.282 10.7271 226.245 10.5735C226.202 10.3973 226.179 10.2171 226.176 10.0361L226.13 8.35546L225.639 8.36769L225.619 7.58477L226.127 7.57258L226.276 6.62476L227.079 6.61134ZM231.998 9.85047C232.009 10.0618 231.963 10.2722 231.863 10.4611C231.773 10.6348 231.643 10.7864 231.482 10.9045C231.32 11.0225 231.138 11.1118 230.944 11.1684C230.531 11.2905 230.091 11.3015 229.673 11.2001C229.474 11.153 229.284 11.0728 229.113 10.9631C228.952 10.8507 228.819 10.7062 228.722 10.5393C228.618 10.3534 228.564 10.1457 228.563 9.93472L228.534 8.8477C228.523 8.63717 228.567 8.42743 228.661 8.23702C228.753 8.06724 228.884 7.91886 229.042 7.8022C229.205 7.68007 229.39 7.58778 229.588 7.52982C229.793 7.46495 230.007 7.4288 230.223 7.42233C230.446 7.41558 230.667 7.44068 230.881 7.49687C231.081 7.54205 231.268 7.62512 231.434 7.74114C231.595 7.85395 231.725 8.00168 231.815 8.17226C231.914 8.36163 231.966 8.57082 231.966 8.78298L231.998 9.85047ZM235.301 7.65195C235.461 7.76501 235.592 7.9127 235.682 8.08312C235.782 8.27234 235.834 8.48164 235.833 8.6938L235.862 9.76617C235.874 9.97685 235.831 10.1872 235.734 10.3769C235.644 10.5505 235.514 10.7021 235.353 10.8202C235.191 10.9384 235.009 11.0278 234.814 11.0841C234.402 11.2065 233.963 11.2175 233.544 11.1158C233.344 11.0687 233.155 10.9885 232.984 10.8788C232.823 10.7664 232.69 10.6219 232.593 10.455C232.488 10.2672 232.433 10.0574 232.434 9.84436L232.404 8.75733C232.394 8.5468 232.438 8.33706 232.532 8.14661C232.624 7.97658 232.754 7.82815 232.913 7.71184C233.076 7.5897 233.261 7.49741 233.459 7.43945C233.664 7.37389 233.878 7.33769 234.094 7.33197C234.317 7.32511 234.539 7.35022 234.754 7.40645C234.951 7.4503 235.137 7.53169 235.301 7.64584V7.65195ZM238.658 9.82724C238.832 9.96713 239.034 10.0729 239.251 10.1387C239.445 10.1897 239.646 10.2131 239.847 10.2083C240 10.2097 240.151 10.1744 240.286 10.1057C240.338 10.08 240.38 10.0412 240.41 9.99352C240.439 9.94587 240.455 9.89132 240.454 9.83582C240.454 9.79306 240.443 9.75088 240.423 9.7129C240.403 9.67487 240.373 9.64206 240.337 9.61715C240.223 9.54676 240.091 9.50479 239.956 9.49502L239.392 9.41077C239.21 9.37713 239.034 9.32262 238.866 9.24833C238.711 9.17992 238.575 9.07643 238.47 8.94665C238.359 8.79447 238.301 8.61216 238.306 8.42634C238.297 8.24659 238.335 8.06749 238.418 7.90599C238.494 7.75732 238.604 7.62709 238.74 7.52493C238.876 7.41701 239.032 7.33423 239.2 7.28067C239.378 7.22547 239.564 7.19503 239.751 7.1903C240.036 7.18088 240.32 7.20179 240.6 7.25255C240.877 7.30676 241.137 7.41987 241.362 7.58358L240.908 8.31639C240.729 8.19973 240.527 8.11948 240.316 8.08066C240.144 8.04529 239.968 8.02931 239.792 8.03306C239.656 8.02664 239.521 8.06497 239.411 8.14172C239.376 8.16969 239.347 8.20496 239.327 8.24487C239.308 8.28482 239.298 8.32843 239.298 8.37258C239.299 8.4187 239.315 8.46334 239.345 8.49969C239.374 8.53605 239.416 8.56219 239.462 8.57413C239.592 8.61739 239.725 8.64965 239.86 8.67061C240.025 8.69626 240.2 8.72433 240.385 8.7561C240.565 8.78495 240.74 8.83926 240.904 8.9173C241.067 8.98793 241.208 9.09719 241.315 9.23487C241.435 9.39804 241.496 9.59382 241.49 9.79306C241.496 9.97428 241.453 10.154 241.362 10.3134C241.28 10.4647 241.162 10.5953 241.017 10.6944C240.862 10.8051 240.687 10.8879 240.501 10.9387C240.299 10.9949 240.089 11.0257 239.878 11.0303C239.733 11.0335 239.588 11.0294 239.443 11.0181C239.296 11.0112 239.149 10.992 239.006 10.9607C238.855 10.9211 238.708 10.8688 238.566 10.8044C238.408 10.7282 238.26 10.6347 238.124 10.5259L238.658 9.82724ZM236.498 10.0556L236.378 5.63912L237.383 5.61347L237.498 9.84801C237.498 9.91692 237.505 9.98568 237.519 10.0532C237.533 10.1008 237.561 10.1432 237.6 10.1753C237.653 10.2022 237.71 10.2188 237.768 10.2242C237.858 10.2333 237.948 10.2362 238.038 10.2328L238.075 11.0462C237.992 11.0626 237.907 11.0748 237.822 11.0828C237.743 11.0902 237.667 11.0938 237.593 11.0963C237.4 11.1077 237.207 11.0866 237.021 11.034C236.895 10.9939 236.782 10.9232 236.692 10.8288C236.614 10.7323 236.562 10.6185 236.541 10.4978C236.515 10.3496 236.502 10.1998 236.5 10.0496L236.498 10.0556ZM233.408 8.90023L233.429 9.64527C233.429 9.75167 233.45 9.85703 233.492 9.95549C233.534 10.0333 233.593 10.1019 233.664 10.157C233.736 10.2053 233.818 10.2405 233.904 10.2608C233.992 10.2792 234.083 10.287 234.173 10.2841C234.256 10.2819 234.338 10.2696 234.418 10.2474C234.501 10.2203 234.577 10.1789 234.645 10.1253C234.712 10.0671 234.767 9.99599 234.805 9.91642C234.846 9.81688 234.865 9.70974 234.859 9.6025L234.838 8.85746C234.84 8.75294 234.816 8.64955 234.768 8.55578C234.727 8.47922 234.668 8.41278 234.596 8.36158C234.529 8.3085 234.449 8.27165 234.363 8.25409C234.284 8.23022 234.201 8.21907 234.117 8.22114C234.03 8.22459 233.945 8.23979 233.863 8.26632C233.779 8.28941 233.702 8.33124 233.637 8.38846C233.568 8.44311 233.513 8.51202 233.476 8.59001C233.431 8.68536 233.408 8.78934 233.411 8.89411L233.408 8.90023ZM230.969 8.9613C230.969 8.85672 230.945 8.75348 230.896 8.65961C230.856 8.58335 230.797 8.51701 230.726 8.46541C230.658 8.41327 230.579 8.37652 230.494 8.35792C230.414 8.33454 230.331 8.32384 230.247 8.32616C230.161 8.32922 230.076 8.34401 229.993 8.37016C229.909 8.39324 229.831 8.43507 229.767 8.49229C229.698 8.54665 229.644 8.61566 229.607 8.6938C229.564 8.79048 229.545 8.8954 229.551 9.00036L229.572 9.74541C229.572 9.85171 229.594 9.95692 229.635 10.0556C229.677 10.1329 229.736 10.201 229.807 10.2559C229.877 10.3049 229.956 10.3417 230.039 10.3647C230.128 10.3831 230.219 10.3909 230.31 10.3878C230.392 10.3868 230.474 10.3745 230.554 10.3512C230.636 10.3241 230.713 10.2827 230.78 10.2291C230.848 10.171 230.902 10.0998 230.94 10.0202C230.982 9.92081 231.001 9.81363 230.996 9.70634L230.969 8.9613ZM243.8 5.12858C243.787 4.64576 243.575 4.18767 243.211 3.85509C242.847 3.5225 242.36 3.34266 241.858 3.35513L223.16 3.82414C222.661 3.83948 222.188 4.04364 221.845 4.39222C221.502 4.7408 221.315 5.20561 221.327 5.68553L221.506 12.281C221.518 12.7638 221.73 13.2219 222.095 13.5545C222.459 13.8871 222.946 14.0669 223.448 14.0544L242.146 13.5867C242.646 13.5726 243.12 13.3691 243.464 13.0207C243.808 12.6722 243.995 12.207 243.985 11.7265L243.8 5.12858Z" fill="white"/>
<path d="M156.525 4.14959C156.525 4.14959 157.887 3.95294 158.078 3.05034C158.268 2.14773 158.178 1.18406 159.576 1.3404C160.973 1.49674 160.995 2.68392 160.592 4.14959C160.189 5.61524 158.731 6.82324 157.957 7.26901" fill="#263238"/>
<path d="M159.342 3.02349C159.778 3.1383 160.203 2.97952 160.296 2.65707C160.389 2.33463 160.108 1.9841 159.672 1.87173C159.236 1.75936 158.798 1.83508 158.715 2.23814C158.633 2.6412 158.906 2.90868 159.342 3.02349Z" fill="#9F6BC9"/>
<path d="M146.428 3.80152C146.428 3.80152 145.03 3.59755 144.884 2.40792C144.738 1.21829 143.939 0.826227 143.171 1.08027C142.402 1.33432 141.81 4.18381 144.451 6.41409L146.428 3.80152Z" fill="#263238"/>
<path fill-rule="evenodd" clip-rule="evenodd" d="M157.228 21.707C156.161 21.707 155.466 20.9839 155.028 19.8993C153.829 20.1789 152.599 20.311 151.366 20.2926C150.133 20.3111 148.902 20.1789 147.704 19.8993C147.265 20.9839 146.573 21.707 145.502 21.707C143.292 21.707 142.306 17.6166 142.287 13.5493C142.287 11.1701 142.616 8.79693 143.245 7.26532C143.318 7.087 143.394 6.91968 143.476 6.76578C145.44 2.99172 148.12 2.24667 151.375 2.24667C154.63 2.24667 157.285 2.97951 159.252 6.76578C161.218 10.5521 160.88 21.7045 157.219 21.7045" fill="#9F6BC9"/>
<path opacity="0.1" fill-rule="evenodd" clip-rule="evenodd" d="M157.228 21.7069C156.161 21.7069 155.466 20.9839 155.027 19.8993C153.829 20.1788 152.599 20.311 151.366 20.2926C150.049 20.283 148.739 20.119 147.463 19.8041C147.463 19.8041 148.008 18.5827 149.215 18.645C150.422 18.7073 157.318 19.5342 157.747 17.0132C158.177 14.4923 160.231 8.05677 154.458 2.57886C156.342 3.10161 157.955 4.26193 159.257 6.76824C161.221 10.5313 160.885 21.7069 157.224 21.7069" fill="black"/>
<path opacity="0.1" fill-rule="evenodd" clip-rule="evenodd" d="M147.869 17.3259C147.809 17.9366 147.246 18.5094 146.072 18.3262C144.808 18.1296 144.952 16.135 145.039 15.4462C145.039 15.4462 145.227 17.4724 146.425 17.6642C147.623 17.856 147.869 17.3259 147.869 17.3259Z" fill="black"/>
<path opacity="0.1" fill-rule="evenodd" clip-rule="evenodd" d="M154.864 17.3259C154.921 17.9366 155.485 18.5094 156.661 18.3262C157.925 18.1296 157.781 16.135 157.694 15.4462C157.694 15.4462 157.502 17.4724 156.304 17.6642C155.106 17.856 154.864 17.3259 154.864 17.3259Z" fill="black"/>
<path d="M155.022 19.6514C155.074 19.6525 155.124 19.6677 155.167 19.6954C155.21 19.7235 155.243 19.7625 155.264 19.8077C155.713 20.918 156.354 21.4578 157.223 21.4578C157.816 21.4578 158.344 21.1012 158.797 20.4099C159.644 19.1005 160.159 16.5711 160.18 13.6727C160.199 10.8916 159.753 8.28887 159.02 6.88062C157.127 3.23599 154.589 2.49217 151.361 2.49217C148.133 2.49217 145.601 3.23842 143.708 6.86962C142.972 8.2791 142.528 10.8819 142.544 13.6629C142.577 16.5613 143.082 19.0749 143.942 20.4001C144.391 21.1012 144.922 21.4468 145.513 21.4468C146.382 21.4468 147.025 20.9082 147.473 19.798C147.497 19.7401 147.542 19.6929 147.601 19.6661C147.657 19.6379 147.722 19.6317 147.783 19.649C148.958 19.9241 150.164 20.0566 151.372 20.0435C152.583 20.0605 153.791 19.9313 154.968 19.6587C154.989 19.6538 155.012 19.6514 155.034 19.6514M157.234 21.9549C156.201 21.9549 155.409 21.3638 154.878 20.1924C153.727 20.438 152.551 20.5553 151.372 20.5418C150.193 20.5552 149.016 20.438 147.865 20.1924C147.334 21.3638 146.544 21.9549 145.508 21.9549C144.724 21.9549 144.046 21.5201 143.496 20.6615C141.518 17.5897 141.659 9.68735 143.244 6.6473C145.375 2.55689 148.406 1.99384 151.366 1.99384C154.326 1.99384 157.359 2.55689 159.488 6.6473C161.071 9.68735 161.214 17.5897 159.234 20.6615C158.69 21.5201 158.012 21.9549 157.228 21.9549H157.234Z" fill="#263238"/>
<path d="M145.211 15.2593C145.156 16.0715 145.039 17.9097 146.11 18.0978C146.704 18.2114 147.471 18.0636 147.635 17.4151C147.67 17.2597 147.666 17.0986 147.625 16.9448C147.583 16.791 147.504 16.6487 147.395 16.5295C147.094 16.2544 146.857 15.9215 146.7 15.5525C146.569 15.1808 146.489 14.7945 146.461 14.4031C146.459 14.37 146.47 14.3372 146.491 14.3115C146.514 14.2864 146.546 14.2707 146.58 14.2675C146.612 14.265 146.644 14.2742 146.669 14.2932C146.694 14.3119 146.711 14.339 146.716 14.3689C146.778 14.9088 146.979 15.4254 147.3 15.8724C147.411 16.008 147.554 16.1338 147.697 16.278C147.94 16.5226 148.081 16.8449 148.092 17.183C148.103 17.5211 147.983 17.8512 147.757 18.11C147.33 18.5766 146.635 18.634 146.035 18.5522C144.995 18.3922 144.765 17.2196 144.788 16.3708C144.796 15.9797 144.844 15.5902 144.93 15.208C144.935 15.1906 144.943 15.1741 144.953 15.1592C144.969 15.1366 144.992 15.1194 145.019 15.1098C145.045 15.1002 145.074 15.0986 145.102 15.1054C145.136 15.1128 145.167 15.1324 145.187 15.1604C145.206 15.188 145.215 15.2213 145.211 15.2544" fill="#263238"/>
<path d="M157.802 15.2079C158.037 16.2938 158.176 18.2614 156.713 18.5484C155.869 18.7011 154.864 18.408 154.681 17.5017C154.637 17.2833 154.648 17.0581 154.712 16.8445C154.777 16.6309 154.893 16.4351 155.052 16.273C155.199 16.1215 155.323 16.0116 155.449 15.8675C155.767 15.4172 155.962 14.898 156.018 14.3567C156.021 14.3406 156.027 14.3252 156.036 14.3115C156.046 14.298 156.058 14.2865 156.072 14.2773C156.085 14.2679 156.101 14.2613 156.118 14.2577C156.134 14.254 156.152 14.254 156.168 14.2577C156.2 14.2629 156.229 14.2795 156.248 14.3041C156.268 14.3289 156.277 14.3599 156.274 14.3908C156.248 14.7826 156.168 15.1692 156.035 15.5402C155.879 15.9099 155.642 16.243 155.34 16.5173C155.231 16.6376 155.153 16.7809 155.112 16.9356C155.072 17.0903 155.07 17.2521 155.106 17.4077C155.247 18.0574 156.032 18.193 156.631 18.0904C157.698 17.9023 157.584 16.0642 157.52 15.2519C157.524 15.2224 157.537 15.1948 157.558 15.1725C157.579 15.1507 157.607 15.1361 157.638 15.131C157.669 15.1258 157.7 15.1301 157.728 15.1432C157.756 15.1567 157.779 15.1785 157.793 15.2055L157.802 15.2079Z" fill="#263238"/>
<path fill-rule="evenodd" clip-rule="evenodd" d="M154.641 8.00186C154.641 9.73015 154.078 11.1445 151.483 11.1445C148.887 11.1445 148.368 9.73503 148.368 8.00186C148.368 6.2687 149.444 4.84338 151.508 4.84338C153.573 4.84338 154.641 6.27851 154.641 8.00186Z" fill="white"/>
<path d="M151.508 5.09982C149.38 5.09982 148.626 6.67052 148.626 8.00917C148.626 9.50413 148.973 10.8892 151.487 10.8892C154.044 10.8892 154.387 9.4333 154.387 8.00917C154.387 6.66564 153.633 5.09738 151.508 5.09738V5.09982ZM151.487 11.3838C148.49 11.3838 148.109 9.57743 148.109 8.00675C148.109 5.96948 149.471 4.60272 151.508 4.60272C153.546 4.60272 154.907 5.9719 154.907 8.00675C154.907 9.45653 154.561 11.3838 151.487 11.3838Z" fill="#263238"/>
<path fill-rule="evenodd" clip-rule="evenodd" d="M153.404 8.83112C153.195 9.34038 152.785 9.74965 152.264 9.96994C151.742 10.1902 151.152 10.2037 150.62 10.0073C150.311 9.87958 150.039 9.67985 149.83 9.42616C149.62 9.17247 149.48 8.87271 149.421 8.5539L151.108 7.79175L149.584 7.25556C149.798 6.75395 150.208 6.35272 150.725 6.13775C151.243 5.92273 151.828 5.91098 152.354 6.105C152.87 6.3321 153.272 6.7468 153.47 7.25802C153.566 7.51171 153.609 7.78099 153.597 8.05067C153.587 8.32078 153.52 8.58616 153.401 8.83112" fill="#263238"/>
<path d="M144.315 2.2907C144.359 2.72307 144.135 3.1017 143.807 3.13101C143.479 3.16033 143.181 2.84032 143.136 2.39818C143.092 1.95604 143.238 1.5652 143.645 1.55787C144.051 1.55054 144.271 1.85344 144.315 2.2907Z" fill="#9F6BC9"/>
<path fill-rule="evenodd" clip-rule="evenodd" d="M154.779 12.0422L154.709 12.0935C154.455 12.2645 154.164 12.3561 153.892 12.5308L153.866 12.5467L153.926 12.9582C153.935 13.0189 153.957 13.0773 153.988 13.1305C154.021 13.1833 154.064 13.2295 154.115 13.2664C154.166 13.3033 154.224 13.3302 154.286 13.3454C154.347 13.3612 154.411 13.365 154.474 13.3564C154.537 13.3478 154.598 13.3275 154.653 13.2966C154.708 13.2647 154.756 13.2233 154.795 13.1744C154.834 13.1257 154.862 13.07 154.878 13.0106C154.894 12.9512 154.897 12.8894 154.888 12.8288L154.779 12.0422Z" fill="white"/>
<path fill-rule="evenodd" clip-rule="evenodd" d="M153.213 12.7481C152.936 12.8176 152.652 12.8557 152.366 12.8617L152.399 13.3063C152.411 13.4277 152.472 13.5398 152.569 13.6186C152.666 13.6976 152.791 13.7371 152.917 13.7289C153.044 13.7207 153.163 13.665 153.248 13.5736C153.333 13.4823 153.377 13.3626 153.371 13.2403L153.33 12.7017C153.292 12.72 153.253 12.7355 153.213 12.7481Z" fill="white"/>
<path fill-rule="evenodd" clip-rule="evenodd" d="M151.747 12.8373V13.3613C151.752 13.4254 151.744 13.4898 151.722 13.5506C151.699 13.6116 151.664 13.6676 151.619 13.7155C151.573 13.7628 151.518 13.8007 151.456 13.8267C151.395 13.8524 151.329 13.8658 151.262 13.8657C151.195 13.8656 151.128 13.8523 151.066 13.8267C151.005 13.8007 150.949 13.7628 150.903 13.7153C150.858 13.6678 150.823 13.6117 150.801 13.5506C150.779 13.4898 150.77 13.4254 150.775 13.3613V12.8373H151.747Z" fill="white"/>
<path fill-rule="evenodd" clip-rule="evenodd" d="M150.187 12.7225L150.157 13.1317C150.153 13.1929 150.136 13.2526 150.107 13.3075C150.079 13.3624 150.039 13.4114 149.991 13.4517C149.943 13.4919 149.887 13.5227 149.827 13.5422C149.766 13.5617 149.702 13.5695 149.639 13.5652C149.575 13.561 149.513 13.5448 149.456 13.5174C149.399 13.4901 149.348 13.4522 149.306 13.4059C149.264 13.3596 149.232 13.3059 149.212 13.2477C149.191 13.1896 149.183 13.1281 149.188 13.0669L149.221 12.6346L150.187 12.7225Z" fill="white"/>
<path d="M155.686 11.219C155.013 12.0818 154.067 12.7104 152.99 13.0095C151.546 13.3528 150.026 13.0987 148.632 12.6639C148.286 12.5454 147.947 12.4101 147.616 12.2584C147.587 12.2455 147.561 12.2267 147.541 12.2034C147.519 12.1809 147.503 12.1542 147.493 12.1253C147.483 12.0966 147.478 12.0663 147.48 12.0361C147.482 12.006 147.49 11.9765 147.504 11.9494C147.517 11.922 147.536 11.8975 147.56 11.8773C147.584 11.8569 147.611 11.8411 147.641 11.8309C147.671 11.8212 147.703 11.8174 147.735 11.8199C147.767 11.822 147.797 11.8303 147.825 11.8444C148.139 11.9873 148.461 12.1143 148.79 12.2267C150.092 12.637 151.526 12.9155 152.875 12.6248C153.883 12.3682 154.787 11.8271 155.471 11.0712C155.493 11.0492 155.522 11.0357 155.553 11.0333C155.585 11.0301 155.617 11.0384 155.642 11.0566C155.669 11.0739 155.687 11.1002 155.694 11.13C155.701 11.1599 155.696 11.1912 155.68 11.2178L155.686 11.219Z" fill="#263238"/>
<path d="M205.3 19.0781L205.716 18.1796L206.155 17.3191H206.718L205.542 19.6139V21.0482H205.018V19.6193L203.836 17.3191H204.405L204.855 18.2067L205.26 19.0781H205.3ZM209.215 21.0482L208.911 20.2093H207.369L207.07 21.0482H206.53L207.881 17.3191H208.405L209.761 21.0482H209.215ZM208.129 18.001L207.847 18.867L207.538 19.7546H208.748L208.439 18.867L208.151 18.001H208.129ZM212.805 20.5989C212.726 20.6855 212.636 20.7613 212.535 20.8262C212.433 20.8876 212.327 20.9381 212.214 20.9778C212.105 21.0139 211.993 21.0409 211.876 21.059C211.764 21.077 211.655 21.0861 211.55 21.0861C211.362 21.0861 211.182 21.059 211.009 21.0049C210.837 20.9471 210.685 20.866 210.553 20.7613C210.422 20.6567 210.317 20.5286 210.238 20.377C210.159 20.2255 210.12 20.0541 210.12 19.8629V18.499C210.12 18.3113 210.159 18.1436 210.238 17.9956C210.317 17.8441 210.424 17.716 210.559 17.6113C210.694 17.5031 210.849 17.4219 211.026 17.3678C211.206 17.3101 211.396 17.2812 211.594 17.2812C211.808 17.2812 212.005 17.3083 212.186 17.3624C212.37 17.4165 212.535 17.5013 212.681 17.6168L212.422 18.0064C212.321 17.9235 212.193 17.8585 212.039 17.8116C211.889 17.7647 211.741 17.7413 211.594 17.7413C211.474 17.7413 211.358 17.7575 211.246 17.79C211.133 17.8225 211.032 17.873 210.942 17.9415C210.852 18.0101 210.778 18.0984 210.722 18.2067C210.669 18.3149 210.643 18.4466 210.643 18.6018V19.7655C210.643 19.917 210.668 20.0487 210.717 20.1605C210.769 20.2688 210.837 20.3572 210.919 20.4258C211.005 20.4943 211.103 20.5448 211.212 20.5773C211.32 20.6098 211.433 20.626 211.55 20.626C211.636 20.626 211.747 20.6152 211.882 20.5935C212.017 20.5683 212.154 20.5051 212.293 20.4041V19.5327H211.673V19.0835H212.805V20.5989ZM213.453 21.0482V17.3191H213.971V20.5989H216.042V21.0482H213.453ZM218.852 21.0482L218.549 20.2093H217.006L216.708 21.0482H216.167L217.518 17.3191H218.042L219.398 21.0482H218.852ZM217.766 18.001L217.485 18.867L217.175 19.7546H218.385L218.076 18.867L217.788 18.001H217.766Z" fill="white"/>
<path d="M201.381 19.6302V20.6693H201.021V19.6302H199.957V19.2837H201.021V18.2554H201.381V19.2837H202.44V19.6302H201.381Z" fill="white"/>
<path d="M169.572 20.2796L169.966 19.0023L170.518 17.3191H171.087L169.837 21.0482H169.274L168.024 17.3191H168.593L169.161 19.0673L169.538 20.2796H169.572ZM172.091 17.5518C172.091 17.6312 172.061 17.6998 172.001 17.7575C171.941 17.8152 171.87 17.8441 171.787 17.8441C171.708 17.8441 171.639 17.8152 171.579 17.7575C171.519 17.6998 171.489 17.6312 171.489 17.5518C171.489 17.4724 171.519 17.4057 171.579 17.3516C171.639 17.2938 171.708 17.265 171.787 17.265C171.87 17.265 171.941 17.2938 172.001 17.3516C172.061 17.4057 172.091 17.4724 172.091 17.5518ZM171.551 21.0482V18.3637H172.029V21.0482H171.551ZM174.431 20.9832C174.322 21.0193 174.207 21.0428 174.087 21.0536C173.971 21.068 173.884 21.0752 173.828 21.0752C173.532 21.0752 173.318 21.0103 173.186 20.8804C173.055 20.7505 172.989 20.534 172.989 20.2309V18.7804H172.595V18.3637H173.001L173.113 17.7413H173.468V18.3637H174.245V18.7804H173.468V20.0902C173.468 20.1984 173.477 20.2886 173.496 20.3608C173.519 20.4294 173.547 20.4853 173.58 20.5286C173.618 20.5683 173.663 20.5954 173.716 20.6098C173.768 20.6242 173.828 20.6314 173.896 20.6314C173.96 20.6314 174.029 20.6278 174.104 20.6206C174.183 20.6098 174.265 20.599 174.352 20.5881L174.431 20.9832ZM176.498 20.7884C176.277 20.9074 176.095 20.985 175.952 21.0211C175.813 21.0536 175.688 21.0698 175.575 21.0698C175.305 21.0698 175.089 20.9977 174.928 20.8533C174.766 20.709 174.685 20.5123 174.685 20.2634C174.685 20.1154 174.719 19.9909 174.787 19.8899C174.858 19.7889 174.944 19.7077 175.046 19.6464C175.151 19.5814 175.262 19.5363 175.378 19.5111C175.498 19.4822 175.605 19.4678 175.699 19.4678H176.515V19.2621C176.515 19.0745 176.461 18.9446 176.352 18.8724C176.243 18.7966 176.087 18.7587 175.885 18.7587C175.787 18.7587 175.667 18.7732 175.524 18.8021C175.385 18.8273 175.245 18.8959 175.102 19.0078L174.866 18.656C175.046 18.5224 175.228 18.4359 175.412 18.3961C175.596 18.3564 175.766 18.3366 175.924 18.3366C176.288 18.3366 176.556 18.4142 176.729 18.5693C176.905 18.7209 176.994 18.9554 176.994 19.2729V21.0482H176.571L176.515 20.7992L176.498 20.7884ZM176.515 19.852H175.778C175.718 19.852 175.652 19.8575 175.581 19.8683C175.513 19.8755 175.449 19.8935 175.389 19.9224C175.329 19.9477 175.278 19.9892 175.237 20.0469C175.2 20.101 175.181 20.1732 175.181 20.2634C175.181 20.3933 175.226 20.4907 175.316 20.5556C175.41 20.6206 175.528 20.6531 175.671 20.6531C175.742 20.6531 175.815 20.644 175.89 20.626C175.969 20.6043 176.044 20.5791 176.115 20.5502C176.19 20.5214 176.262 20.4907 176.329 20.4582C176.397 20.4221 176.459 20.3897 176.515 20.3608V19.852ZM178.812 18.3366C178.981 18.3366 179.126 18.3727 179.246 18.4449C179.366 18.5134 179.458 18.6144 179.522 18.7479C179.634 18.6613 179.736 18.591 179.826 18.5369C179.916 18.4828 179.997 18.4412 180.068 18.4124C180.139 18.3799 180.203 18.3601 180.259 18.3528C180.316 18.342 180.37 18.3366 180.423 18.3366C180.689 18.3366 180.899 18.4069 181.053 18.5477C181.207 18.6884 181.284 18.9103 181.284 19.2134V21.0482H180.8V19.3108C180.8 19.1304 180.764 18.9987 180.693 18.9157C180.621 18.8327 180.503 18.7913 180.338 18.7913C180.241 18.7913 180.132 18.8201 180.012 18.8778C179.895 18.9356 179.764 19.0186 179.617 19.1268C179.625 19.1593 179.629 19.1881 179.629 19.2134C179.633 19.2387 179.634 19.2693 179.634 19.3054V21.0482H179.15V19.2946C179.15 19.1106 179.109 18.9807 179.026 18.9049C178.948 18.8291 178.848 18.7913 178.728 18.7913C178.612 18.7913 178.497 18.8129 178.385 18.8562C178.276 18.8959 178.143 18.968 177.985 19.0727V21.0482H177.501V18.3637H177.929L177.979 18.6722C178.081 18.6 178.171 18.5423 178.25 18.499C178.332 18.4557 178.405 18.4214 178.469 18.3961C178.537 18.3709 178.597 18.3547 178.649 18.3475C178.706 18.3402 178.76 18.3366 178.812 18.3366ZM182.465 17.5518C182.465 17.6312 182.435 17.6998 182.375 17.7575C182.315 17.8152 182.244 17.8441 182.161 17.8441C182.082 17.8441 182.013 17.8152 181.953 17.7575C181.893 17.6998 181.863 17.6312 181.863 17.5518C181.863 17.4724 181.893 17.4057 181.953 17.3516C182.013 17.2938 182.082 17.265 182.161 17.265C182.244 17.265 182.315 17.2938 182.375 17.3516C182.435 17.4057 182.465 17.4724 182.465 17.5518ZM181.925 21.0482V18.3637H182.403V21.0482H181.925ZM184.478 18.3366C184.752 18.3366 184.966 18.4196 185.12 18.5856C185.274 18.7515 185.351 18.9879 185.351 19.2946V21.0482H184.867V19.3541C184.867 19.1448 184.82 18.9987 184.726 18.9157C184.632 18.8291 184.514 18.7877 184.371 18.7913C184.259 18.7913 184.125 18.8201 183.971 18.8778C183.821 18.9319 183.675 19.0023 183.532 19.0889V21.0482H183.048V18.3637H183.476L183.532 18.6613C183.652 18.5892 183.759 18.5314 183.853 18.4881C183.951 18.4449 184.037 18.4124 184.112 18.3907C184.187 18.3691 184.255 18.3547 184.315 18.3475C184.375 18.3402 184.429 18.3366 184.478 18.3366ZM185.897 20.7505C185.897 20.6747 185.923 20.6043 185.976 20.5394C186.032 20.4745 186.113 20.442 186.218 20.442C186.327 20.442 186.411 20.4745 186.471 20.5394C186.531 20.6043 186.561 20.6747 186.561 20.7505C186.561 20.8407 186.531 20.9183 186.471 20.9832C186.411 21.0445 186.327 21.0752 186.218 21.0752C186.113 21.0752 186.032 21.0445 185.976 20.9832C185.923 20.9219 185.897 20.8443 185.897 20.7505ZM188.834 20.9832C188.725 21.0193 188.611 21.0428 188.491 21.0536C188.375 21.068 188.288 21.0752 188.232 21.0752C187.936 21.0752 187.722 21.0103 187.59 20.8804C187.459 20.7505 187.393 20.534 187.393 20.2309V18.7804H186.999V18.3637H187.404L187.517 17.7413H187.872V18.3637H188.649V18.7804H187.872V20.0902C187.872 20.1984 187.881 20.2886 187.9 20.3608C187.922 20.4294 187.95 20.4853 187.984 20.5286C188.022 20.5683 188.067 20.5954 188.119 20.6098C188.172 20.6242 188.232 20.6314 188.3 20.6314C188.363 20.6314 188.433 20.6278 188.508 20.6206C188.587 20.6098 188.669 20.599 188.756 20.5881L188.834 20.9832ZM191.454 20.101C191.454 20.2562 191.422 20.3951 191.358 20.5178C191.298 20.6368 191.214 20.7379 191.105 20.8208C191 20.9038 190.878 20.967 190.739 21.0103C190.6 21.0536 190.452 21.0752 190.294 21.0752C190.133 21.0752 189.982 21.0536 189.844 21.0103C189.705 20.967 189.583 20.9038 189.478 20.8208C189.376 20.7379 189.296 20.6368 189.236 20.5178C189.176 20.3951 189.146 20.2562 189.146 20.101V19.3216C189.146 19.1665 189.176 19.0294 189.236 18.9103C189.299 18.7877 189.382 18.6848 189.483 18.6018C189.588 18.5152 189.71 18.4503 189.849 18.4069C189.992 18.3601 190.142 18.3366 190.3 18.3366C190.469 18.3366 190.622 18.3601 190.761 18.4069C190.904 18.4503 191.026 18.5152 191.127 18.6018C191.232 18.6848 191.313 18.7877 191.369 18.9103C191.426 19.0294 191.454 19.1665 191.454 19.3216V20.101ZM190.975 19.4028C190.975 19.2874 190.955 19.19 190.913 19.1106C190.872 19.0276 190.818 18.9608 190.75 18.9103C190.686 18.8598 190.615 18.8237 190.536 18.8021C190.457 18.7804 190.38 18.7696 190.305 18.7696C190.226 18.7696 190.148 18.7804 190.069 18.8021C189.99 18.8237 189.917 18.8598 189.849 18.9103C189.785 18.9608 189.733 19.0276 189.692 19.1106C189.65 19.19 189.63 19.2874 189.63 19.4028V20.009C189.63 20.1245 189.647 20.2237 189.68 20.3067C189.718 20.3861 189.767 20.451 189.827 20.5015C189.887 20.552 189.958 20.5881 190.041 20.6098C190.123 20.6314 190.211 20.6422 190.305 20.6422C190.38 20.6422 190.457 20.6314 190.536 20.6098C190.615 20.5881 190.686 20.552 190.75 20.5015C190.818 20.451 190.872 20.3861 190.913 20.3067C190.955 20.2237 190.975 20.1245 190.975 20.009V19.4028ZM194.296 20.101C194.296 20.2562 194.264 20.3951 194.2 20.5178C194.14 20.6368 194.056 20.7379 193.947 20.8208C193.842 20.9038 193.72 20.967 193.581 21.0103C193.442 21.0536 193.294 21.0752 193.136 21.0752C192.975 21.0752 192.825 21.0536 192.686 21.0103C192.547 20.967 192.425 20.9038 192.32 20.8208C192.219 20.7379 192.138 20.6368 192.078 20.5178C192.018 20.3951 191.988 20.2562 191.988 20.101V19.3216C191.988 19.1665 192.018 19.0294 192.078 18.9103C192.142 18.7877 192.224 18.6848 192.326 18.6018C192.431 18.5152 192.553 18.4503 192.692 18.4069C192.834 18.3601 192.984 18.3366 193.142 18.3366C193.311 18.3366 193.465 18.3601 193.603 18.4069C193.746 18.4503 193.868 18.5152 193.969 18.6018C194.074 18.6848 194.155 18.7877 194.211 18.9103C194.268 19.0294 194.296 19.1665 194.296 19.3216V20.101ZM193.817 19.4028C193.817 19.2874 193.797 19.19 193.756 19.1106C193.714 19.0276 193.66 18.9608 193.592 18.9103C193.528 18.8598 193.457 18.8237 193.378 18.8021C193.3 18.7804 193.223 18.7696 193.148 18.7696C193.069 18.7696 192.99 18.7804 192.911 18.8021C192.832 18.8237 192.759 18.8598 192.692 18.9103C192.628 18.9608 192.575 19.0276 192.534 19.1106C192.493 19.19 192.472 19.2874 192.472 19.4028V20.009C192.472 20.1245 192.489 20.2237 192.523 20.3067C192.56 20.3861 192.609 20.451 192.669 20.5015C192.729 20.552 192.8 20.5881 192.883 20.6098C192.966 20.6314 193.054 20.6422 193.148 20.6422C193.223 20.6422 193.3 20.6314 193.378 20.6098C193.457 20.5881 193.528 20.552 193.592 20.5015C193.66 20.451 193.714 20.3861 193.756 20.3067C193.797 20.2237 193.817 20.1245 193.817 20.009V19.4028ZM195.506 20.3337C195.506 20.4745 195.538 20.5628 195.601 20.599C195.669 20.6314 195.78 20.644 195.933 20.6368L195.945 21.059C195.892 21.0662 195.841 21.0716 195.793 21.0752C195.748 21.0788 195.704 21.0806 195.663 21.0806C195.532 21.0806 195.425 21.0662 195.342 21.0373C195.264 21.0049 195.2 20.9597 195.151 20.902C195.102 20.8407 195.068 20.7685 195.05 20.6855C195.035 20.599 195.027 20.5015 195.027 20.3933V17.173H195.506V20.3337ZM198.514 20.2796C198.514 20.4059 198.486 20.5178 198.429 20.6152C198.373 20.7126 198.296 20.7974 198.199 20.8696C198.101 20.9381 197.985 20.9904 197.85 21.0265C197.714 21.0626 197.566 21.0806 197.405 21.0806C197.21 21.0806 197.02 21.0572 196.836 21.0103C196.652 20.9597 196.466 20.866 196.279 20.7288L196.543 20.3879C196.682 20.4997 196.825 20.5773 196.971 20.6206C197.117 20.6603 197.277 20.6801 197.45 20.6801C197.517 20.6801 197.585 20.6729 197.653 20.6585C197.724 20.6404 197.785 20.6152 197.838 20.5827C197.895 20.5502 197.939 20.5087 197.973 20.4582C198.007 20.4041 198.024 20.341 198.024 20.2688C198.024 20.1533 197.981 20.0704 197.895 20.0199C197.808 19.9693 197.699 19.9332 197.568 19.9116C197.425 19.8899 197.283 19.8665 197.14 19.8412C197.001 19.8124 196.876 19.7708 196.763 19.7167C196.651 19.6626 196.558 19.5905 196.487 19.5002C196.416 19.4101 196.38 19.291 196.38 19.1431C196.38 19.0204 196.406 18.9085 196.459 18.8075C196.512 18.7065 196.585 18.6217 196.679 18.5531C196.772 18.4845 196.879 18.4323 196.999 18.3961C197.123 18.3564 197.256 18.3366 197.399 18.3366C197.609 18.3366 197.795 18.3583 197.956 18.4016C198.118 18.4412 198.273 18.5134 198.424 18.6181L198.182 18.9644C198.05 18.8851 197.922 18.8291 197.799 18.7966C197.675 18.7642 197.542 18.7479 197.399 18.7479C197.234 18.7479 197.101 18.7858 196.999 18.8616C196.898 18.9338 196.848 19.0258 196.848 19.1376C196.848 19.2315 196.889 19.3018 196.971 19.3487C197.054 19.3956 197.157 19.4335 197.281 19.4624C197.405 19.4876 197.538 19.5129 197.681 19.5381C197.823 19.5598 197.956 19.5977 198.081 19.6518C198.204 19.7059 198.307 19.7817 198.39 19.8791C198.472 19.9765 198.514 20.11 198.514 20.2796Z" fill="white"/>
<path d="M171.897 6.55382L171.063 9.78511L169.973 14.0551H167.403L164.408 2.69601H166.893L167.914 7.18028L168.697 10.6918H168.816L169.718 7.14733L170.875 2.69601H173.054L174.279 7.37813L175.13 10.6918H175.232L175.964 7.34513L177.037 2.69601H179.522L176.492 14.0551H173.956L172.867 9.76863L172.016 6.55382H171.897Z" fill="white"/>
<path d="M188.932 11.714H184.848L184.082 14.0551H181.597L185.716 2.69601H188.098L192.183 14.0551H189.647L188.932 11.714ZM185.477 9.81811H188.303L187.843 8.36729L186.924 5.3668H186.856L185.954 8.31781L185.477 9.81811Z" fill="white"/>
<path d="M204.586 7.95511L203.497 10.0489L202.169 12.4889H200.484L199.173 10.0983L198.033 7.95511H197.965V14.0551H195.65V2.69601H197.795L199.888 6.70219L201.301 9.50483H201.403L202.833 6.63624L204.841 2.69601H206.985V14.0551H204.654V7.95511H204.586Z" fill="white"/>
<path d="M211.311 2.69601H219.396V4.72383H213.643V7.32865H218.562V9.35645H213.643V12.0438H219.396V14.0551H211.311V2.69601Z" fill="white"/>
<defs>
<clipPath id="clip0_4_2">
<rect width="88" height="23" fill="white"/>
</clipPath>
</defs>
</svg>
